<svg version="1.2" baseProfile="tiny-ps" xmlns="http://www.w3.org/2000/svg" viewBox="0 0 189 182" width="189" height="182">
	<title>Osiris</title>
	<style>
		tspan { white-space:pre }
		.s0 { fill: #5abee4 } 
		.s1 { fill: #7dd8fb } 
		.s2 { fill: #e4da53 } 
		.s3 { fill: #fdf47a } 
		.s4 { fill: #1e5ec9 } 
		.s5 { fill: #3877e1 } 
		.s6 { fill: #e1534b } 
		.s7 { fill: #f77068 } 
		.s8 { fill: #0d9c57 } 
		.s9 { fill: #20b66d } 
	</style>
	<g id="Folder 2 copy 2">
		<path id="Shape 13 copy 10" class="s0" d="m126.97 129h-40.52l0-40.52l40.52 40.52z" />
		<path id="Shape 13 copy 9" class="s1" d="m86.45 88.48h40.52v40.52l-40.52-40.52z" />
		<path id="Shape 13 copy 13" class="s2" d="m126.97 89h-40.52l0-40.52l40.52 40.52z" />
		<path id="Shape 13 copy 14" class="s3" d="m86.45 48.48h40.52v40.52l-40.52-40.52z" />
		<path id="Shape 13 copy 17" class="s4" d="m66.97 49h-40.52l0-40.52l40.52 40.52z" />
		<path id="Shape 13 copy 18" class="s5" d="m26.45 8.48h40.52v40.52l-40.52-40.52z" />
		<path id="Shape 13 copy 15" class="s6" d="m167.97 109h-40.52l0-40.52l40.52 40.52z" />
		<path id="Shape 13 copy 16" class="s7" d="m127.45 68.48h40.52v40.52l-40.52-40.52z" />
		<path id="Shape 13 copy 11" class="s8" d="m86.97 169h-40.52l0-40.52l40.52 40.52z" />
		<path id="Shape 13 copy 12" class="s9" d="m46.45 128.48h40.52v40.52l-40.52-40.52z" />
	</g>
</svg>